<svg width="29" height="29" viewBox="0 0 29 29" fill="none" xmlns="http://www.w3.org/2000/svg">
<mask id="mask0_472_1354" style="mask-type:alpha" maskUnits="userSpaceOnUse" x="0" y="0" width="29" height="29">
<rect width="29" height="29" fill="#D9D9D9"/>
</mask>
<g mask="url(#mask0_472_1354)">
<path d="M24.4813 27.3834C21.9639 27.3834 19.4767 26.8126 17.0198 25.6711C14.5628 24.5295 12.3274 22.9114 10.3135 20.8168C8.29965 18.7222 6.74392 16.3972 5.64635 13.8417C4.54878 11.2863 4 8.69947 4 6.0812C4 5.70417 4.12083 5.38998 4.3625 5.13863C4.60417 4.88727 4.90625 4.7616 5.26875 4.7616H10.1625C10.4444 4.7616 10.6962 4.86109 10.9177 5.06008C11.1392 5.25907 11.2701 5.49471 11.3104 5.76701L12.0958 10.1657C12.1361 10.5008 12.126 10.7836 12.0656 11.014C12.0052 11.2444 11.8944 11.4434 11.7333 11.611L8.80313 14.6901C9.2059 15.4651 9.6842 16.2139 10.238 16.9365C10.7918 17.6592 11.401 18.3556 12.0656 19.0259C12.6899 19.6752 13.3444 20.2774 14.0292 20.8325C14.7139 21.3876 15.4389 21.8955 16.2042 22.3563L19.0437 19.4029C19.225 19.2144 19.4616 19.073 19.7536 18.9788C20.0457 18.8845 20.3326 18.8583 20.6146 18.9002L24.7833 19.78C25.0653 19.8638 25.2969 20.0156 25.4781 20.2356C25.6594 20.4555 25.75 20.7016 25.75 20.9739V26.0638C25.75 26.4408 25.6292 26.755 25.3875 27.0064C25.1458 27.2577 24.8438 27.3834 24.4813 27.3834ZM7.65521 12.3022L9.64896 10.2285L9.13542 7.27513H6.44688C6.54757 8.13392 6.68854 8.98224 6.86979 9.82009C7.05104 10.6579 7.31285 11.4853 7.65521 12.3022ZM18.4698 23.5503C19.2552 23.9064 20.0557 24.1891 20.8714 24.3986C21.687 24.6081 22.5076 24.7442 23.3333 24.807V22.0422L20.4938 21.4452L18.4698 23.5503Z" fill="white"/>
</g>
</svg>
