<svg width="27" height="27" viewBox="0 0 27 27" fill="none" xmlns="http://www.w3.org/2000/svg">
<path d="M18.9816 9.35297C18.8644 9.04957 18.685 8.77407 18.4549 8.54422C18.2248 8.31437 17.9492 8.13526 17.6456 8.01844C17.2277 7.86364 16.7863 7.78183 16.3406 7.77656C15.5995 7.74281 15.3773 7.73437 13.5 7.73437C11.6227 7.73437 11.4005 7.74281 10.6594 7.77656C10.2133 7.78167 9.77135 7.86348 9.35297 8.01844C9.04957 8.13558 8.77407 8.31498 8.54422 8.54507C8.31437 8.77516 8.13527 9.05085 8.01844 9.35437C7.86365 9.7723 7.78183 10.2137 7.77657 10.6594C7.74282 11.4005 7.73438 11.6227 7.73438 13.5C7.73438 15.3773 7.74282 15.5995 7.77657 16.3406C7.78167 16.7867 7.86349 17.2287 8.01844 17.647C8.13559 17.9504 8.31498 18.2259 8.54508 18.4558C8.77517 18.6856 9.05086 18.8647 9.35438 18.9816C9.77231 19.1364 10.2137 19.2182 10.6594 19.2234C11.4005 19.2572 11.6227 19.2642 13.5 19.2642C15.3773 19.2642 15.5995 19.2572 16.3406 19.222C16.7867 19.2174 17.2286 19.136 17.647 18.9816C17.9504 18.8644 18.2259 18.685 18.4558 18.4549C18.6856 18.2248 18.8647 17.9491 18.9816 17.6456C19.1364 17.2277 19.2182 16.7863 19.2234 16.3406C19.2572 15.5995 19.2642 15.3773 19.2642 13.5C19.2642 11.6227 19.2572 11.4005 19.222 10.6594C19.2174 10.2133 19.136 9.77143 18.9816 9.35297ZM13.5 17.1112C12.7858 17.1112 12.0876 16.8995 11.4937 16.5026C10.8998 16.1058 10.437 15.5418 10.1636 14.882C9.89032 14.2221 9.8188 13.496 9.95814 12.7955C10.0975 12.095 10.4414 11.4515 10.9465 10.9465C11.4515 10.4414 12.095 10.0975 12.7955 9.95814C13.496 9.8188 14.2221 9.89031 14.882 10.1636C15.5418 10.437 16.1058 10.8998 16.5026 11.4937C16.8995 12.0876 17.1113 12.7858 17.1113 13.5C17.1113 14.4578 16.7308 15.3763 16.0535 16.0535C15.3763 16.7308 14.4578 17.1112 13.5 17.1112ZM17.2533 10.5905C17.0864 10.5905 16.9233 10.541 16.7845 10.4483C16.6458 10.3556 16.5376 10.2238 16.4738 10.0696C16.4099 9.91543 16.3932 9.74578 16.4257 9.58211C16.4583 9.41844 16.5387 9.2681 16.6567 9.15009C16.7747 9.03209 16.925 8.95174 17.0887 8.91918C17.2523 8.88662 17.422 8.90333 17.5762 8.96719C17.7303 9.03105 17.8621 9.1392 17.9548 9.27795C18.0475 9.41671 18.097 9.57984 18.097 9.74672C18.097 9.97049 18.0081 10.1851 17.8499 10.3433C17.6917 10.5016 17.4771 10.5905 17.2533 10.5905ZM15.8442 13.5C15.8442 13.9636 15.7067 14.4169 15.4492 14.8024C15.1916 15.1879 14.8254 15.4883 14.3971 15.6658C13.9687 15.8432 13.4974 15.8896 13.0427 15.7992C12.5879 15.7087 12.1702 15.4855 11.8424 15.1576C11.5145 14.8298 11.2913 14.4121 11.2008 13.9573C11.1104 13.5026 11.1568 13.0313 11.3342 12.6029C11.5117 12.1746 11.8121 11.8084 12.1976 11.5509C12.5831 11.2933 13.0364 11.1558 13.5 11.1558C14.1217 11.1558 14.718 11.4028 15.1576 11.8424C15.5972 12.282 15.8442 12.8783 15.8442 13.5ZM13.5 0C10.83 0 8.21987 0.791761 5.99981 2.27516C3.77974 3.75856 2.04941 5.86697 1.02763 8.33377C0.00584931 10.8006 -0.261496 13.515 0.259405 16.1337C0.780305 18.7525 2.06606 21.1579 3.95406 23.0459C5.84207 24.9339 8.24754 26.2197 10.8663 26.7406C13.485 27.2615 16.1994 26.9942 18.6662 25.9724C21.133 24.9506 23.2414 23.2203 24.7248 21.0002C26.2082 18.7801 27 16.17 27 13.5C27 9.91958 25.5777 6.4858 23.0459 3.95406C20.5142 1.42232 17.0804 0 13.5 0ZM20.4891 16.3983C20.4772 16.9818 20.3664 17.559 20.1614 18.1055C19.9808 18.5724 19.7046 18.9966 19.3506 19.3506C18.9966 19.7046 18.5725 19.9808 18.1055 20.1614C17.5595 20.3662 16.9827 20.477 16.3997 20.4891C15.6488 20.5228 15.4097 20.5312 13.5 20.5312C11.5903 20.5312 11.3513 20.5228 10.6003 20.4891C10.0173 20.477 9.44053 20.3662 8.89454 20.1614C8.42755 19.9808 8.00345 19.7046 7.6494 19.3506C7.29536 18.9966 7.01919 18.5724 6.8386 18.1055C6.63379 17.5595 6.52301 16.9827 6.51094 16.3997C6.47719 15.6487 6.46875 15.4097 6.46875 13.5C6.46875 11.5903 6.47719 11.3512 6.51094 10.6003C6.52256 10.0174 6.63287 9.44061 6.83719 8.89453C7.01778 8.42715 7.29409 8.00269 7.64839 7.64838C8.00269 7.29408 8.42715 7.01777 8.89454 6.83719C9.44062 6.63286 10.0174 6.52255 10.6003 6.51094C11.3513 6.47719 11.5903 6.46875 13.5 6.46875C15.4097 6.46875 15.6488 6.47719 16.3997 6.51094C16.9826 6.52255 17.5594 6.63286 18.1055 6.83719C18.5726 7.01794 18.9968 7.29432 19.3508 7.64861C19.7049 8.00291 19.981 8.42728 20.1614 8.89453C20.3662 9.44053 20.477 10.0173 20.4891 10.6003C20.5228 11.3512 20.5313 11.5903 20.5313 13.5C20.5313 15.4097 20.5228 15.6473 20.4891 16.3983Z" fill="white"/>
</svg>
