<svg width="28" height="27" viewBox="0 0 28 27" fill="none" xmlns="http://www.w3.org/2000/svg">
<path d="M27.1673 13.5836C27.1673 6.07952 21.0826 0 13.5836 0C6.07952 0 0 6.07952 0 13.5836C0 20.3619 4.96566 25.9821 11.4612 27V17.511H8.01179V13.5845H11.4612V10.5901C11.4612 7.18659 13.486 5.30695 16.5899 5.30695C18.0764 5.30695 19.6326 5.57183 19.6326 5.57183V8.91425H17.9168C16.2324 8.91425 15.7061 9.96274 15.7061 11.0367V13.5836H19.473L18.8677 17.5101H15.7061V26.9992C22.1965 25.9812 27.1673 20.361 27.1673 13.5828V13.5836Z" fill="white"/>
</svg>
