<svg width="29" height="29" viewBox="0 0 29 29" fill="none" xmlns="http://www.w3.org/2000/svg">
<mask id="mask0_472_1359" style="mask-type:alpha" maskUnits="userSpaceOnUse" x="0" y="0" width="29" height="29">
<rect width="29" height="29" fill="#D9D9D9"/>
</mask>
<g mask="url(#mask0_472_1359)">
<path d="M5.41667 26.4265C4.75208 26.4265 4.18316 26.1614 3.7099 25.631C3.23663 25.1007 3 24.4632 3 23.7184V7.46972C3 6.72498 3.23663 6.08745 3.7099 5.55711C4.18316 5.02677 4.75208 4.7616 5.41667 4.7616H24.75C25.4146 4.7616 25.9835 5.02677 26.4568 5.55711C26.93 6.08745 27.1667 6.72498 27.1667 7.46972V23.7184C27.1667 24.4632 26.93 25.1007 26.4568 25.631C25.9835 26.1614 25.4146 26.4265 24.75 26.4265H5.41667ZM15.0833 16.9481L5.41667 10.1778V23.7184H24.75V10.1778L15.0833 16.9481ZM15.0833 14.24L24.75 7.46972H5.41667L15.0833 14.24ZM5.41667 10.1778V7.46972V23.7184V10.1778Z" fill="white"/>
</g>
</svg>
