<svg width="29" height="28" viewBox="0 0 29 28" fill="none" xmlns="http://www.w3.org/2000/svg">
<path d="M14.1505 0C16.0908 0 17.9084 0.367981 19.6033 1.10394C21.2983 1.8399 22.7813 2.83791 24.0525 4.09797C25.3237 5.35803 26.3273 6.83552 27.0633 8.53047C27.7993 10.2254 28.1672 12.043 28.1672 13.9833C28.1672 15.9235 27.7993 17.7411 27.0633 19.4361C26.3273 21.131 25.3237 22.6141 24.0525 23.8853C22.7813 25.1565 21.2983 26.1601 19.6033 26.8961C17.9084 27.632 16.0908 28 14.1505 28C12.2102 28 10.3926 27.632 8.6977 26.8961C7.00276 26.1601 5.52526 25.1565 4.26521 23.8853C3.00515 22.6141 2.00714 21.131 1.27118 19.4361C0.535217 17.7411 0.167236 15.9235 0.167236 13.9833C0.167236 12.043 0.535217 10.2254 1.27118 8.53047C2.00714 6.83552 3.00515 5.35803 4.26521 4.09797C5.52526 2.83791 7.00276 1.8399 8.6977 1.10394C10.3926 0.367981 12.2102 0 14.1505 0ZM21.1087 10.9725C21.7554 10.4819 22.3241 9.89088 22.8148 9.19952C22.5026 9.33333 22.1848 9.44484 21.8614 9.53405C21.538 9.62326 21.1979 9.69016 20.8411 9.73477C21.1979 9.51175 21.5101 9.23855 21.7778 8.91517C22.0454 8.5918 22.2349 8.24054 22.3464 7.86141C22.0119 8.03983 21.6662 8.20151 21.3094 8.34648C20.9526 8.49144 20.5846 8.59737 20.2055 8.66428C19.8932 8.35205 19.5253 8.09558 19.1015 7.89486C18.6778 7.69415 18.2095 7.59379 17.6965 7.59379C17.2282 7.59379 16.7877 7.683 16.3751 7.86141C15.9625 8.03983 15.6057 8.28515 15.3046 8.59737C15.0036 8.9096 14.7638 9.272 14.5854 9.68459C14.407 10.0972 14.3178 10.5376 14.3178 11.006C14.3178 11.1398 14.3233 11.2736 14.3345 11.4074C14.3457 11.5412 14.3624 11.6639 14.3847 11.7754C12.9797 11.7085 11.675 11.3628 10.4707 10.7384C9.2664 10.1139 8.24051 9.27758 7.39304 8.22939C7.08082 8.74233 6.9247 9.31103 6.9247 9.93548C6.9247 10.5153 7.06409 11.0562 7.34286 11.5579C7.62164 12.0597 7.98404 12.4667 8.43008 12.779C7.85023 12.7344 7.33729 12.5894 6.89125 12.3441V12.3775C6.89125 13.225 7.1533 13.9554 7.67739 14.5687C8.20149 15.182 8.85382 15.5667 9.63438 15.7228C9.47827 15.7674 9.32773 15.8009 9.18277 15.8232C9.03781 15.8455 8.88727 15.8566 8.73116 15.8566C8.61965 15.8566 8.51371 15.8511 8.41335 15.8399C8.31299 15.8288 8.20706 15.812 8.09555 15.7897C8.31857 16.4588 8.71443 17.0163 9.28313 17.4624C9.85182 17.9084 10.5153 18.1314 11.2736 18.1314C10.6937 18.5998 10.0414 18.9622 9.31658 19.2186C8.59177 19.4751 7.83908 19.6033 7.05852 19.6033C6.9024 19.6033 6.75744 19.5978 6.62363 19.5866C6.48982 19.5755 6.35601 19.5587 6.22219 19.5364C6.98046 20.0271 7.80005 20.4062 8.68098 20.6738C9.5619 20.9415 10.4819 21.0753 11.4408 21.0753C13.002 21.0753 14.3847 20.7798 15.589 20.1888C16.7933 19.5978 17.8024 18.8395 18.6165 17.914C19.4305 16.9885 20.0494 15.9514 20.4731 14.8029C20.8968 13.6543 21.1087 12.5225 21.1087 11.4074V10.9725Z" fill="white"/>
</svg>
